<svg width="22" height="22" viewBox="0 0 22 22" fill="none" xmlns="http://www.w3.org/2000/svg">
<g id="ic-cart">
<g id="Group 3">
<path id="Union" fill-rule="evenodd" clip-rule="evenodd" d="M16.1693 7.95192C16.3568 7.2805 15.852 6.61542 15.1549 6.61542H1.75676C0.967945 6.61542 0.459095 7.45064 0.820853 8.15161L1.67274 9.80228L1.67408 9.8049L2.22545 10.8956L2.22664 10.898L2.22787 10.9003L2.86785 12.1203L3.33254 13.0061L4.10326 14.5084C4.28355 14.8599 4.64534 15.0809 5.04033 15.0809H13.3788C13.8514 15.0809 14.2661 14.7661 14.3932 14.311L16.1693 7.95192ZM15.1549 7.31755C15.3873 7.31755 15.5556 7.53924 15.4931 7.76305L13.717 14.1221C13.6746 14.2738 13.5364 14.3787 13.3788 14.3787H5.04033C4.90866 14.3787 4.78807 14.3051 4.72797 14.1879L3.95652 12.6842L3.95506 12.6813L3.95505 12.6813L3.48961 11.7941L2.85087 10.5765L2.29936 9.48551L2.29803 9.48289L2.29802 9.4829L1.44479 7.82961C1.3242 7.59595 1.49382 7.31755 1.75676 7.31755H15.1549Z" fill="black"/>
<path id="Union (Stroke)" fill-rule="evenodd" clip-rule="evenodd" d="M3.33254 13.0061L4.10326 14.5084C4.28355 14.8599 4.64534 15.0809 5.04033 15.0809H13.3788C13.8514 15.0809 14.2661 14.7661 14.3932 14.311L16.1693 7.95192C16.3568 7.2805 15.852 6.61542 15.1549 6.61542H1.75676C0.967945 6.61542 0.459095 7.45064 0.820853 8.15161L1.67274 9.80228L1.67408 9.8049L2.22664 10.898L3.33254 13.0061ZM1.44479 7.82961C1.3242 7.59595 1.49382 7.31755 1.75676 7.31755H15.1549C15.3873 7.31755 15.5556 7.53924 15.4931 7.76305L13.717 14.1221C13.6746 14.2738 13.5364 14.3787 13.3788 14.3787H5.04033C4.90866 14.3787 4.78807 14.3051 4.72797 14.1879L3.95506 12.6813L2.85087 10.5765L2.29803 9.48289L2.29654 9.48003L1.44479 7.82961Z" fill="black"/>
<path id="Vector 28 (Stroke)" fill-rule="evenodd" clip-rule="evenodd" d="M16.8688 4.69486C17.055 4.74891 17.1622 4.94368 17.1081 5.12988L13.5694 17.3192H2.49437C2.30049 17.3192 2.14331 17.1621 2.14331 16.9682C2.14331 16.7743 2.30049 16.6171 2.49437 16.6171H13.0421L16.4338 4.93413C16.4879 4.74793 16.6826 4.6408 16.8688 4.69486Z" fill="black"/>
<path id="Vector 30 (Stroke)" fill-rule="evenodd" clip-rule="evenodd" d="M12.0007 6.79337C12.1913 6.8291 12.3168 7.01255 12.2811 7.20312L10.8768 14.6925C10.8411 14.883 10.6577 15.0086 10.4671 14.9728C10.2765 14.9371 10.151 14.7537 10.1867 14.5631L11.591 7.07372C11.6267 6.88316 11.8102 6.75764 12.0007 6.79337Z" fill="black"/>
<path id="Vector 31 (Stroke)" fill-rule="evenodd" clip-rule="evenodd" d="M5.30785 6.79548C5.49726 6.75404 5.6844 6.874 5.72583 7.06341L7.36413 14.5528C7.40556 14.7422 7.2856 14.9293 7.0962 14.9707C6.90679 15.0122 6.71965 14.8922 6.67822 14.7028L5.03992 7.21345C4.99849 7.02404 5.11845 6.83691 5.30785 6.79548Z" fill="black"/>
<path id="Vector 32 (Stroke)" fill-rule="evenodd" clip-rule="evenodd" d="M1.90918 9.71288C1.90918 9.51899 2.06636 9.36182 2.26024 9.36182H15.3666C15.5605 9.36182 15.7177 9.51899 15.7177 9.71288C15.7177 9.90677 15.5605 10.0639 15.3666 10.0639H2.26024C2.06636 10.0639 1.90918 9.90677 1.90918 9.71288Z" fill="black"/>
<path id="Vector 33 (Stroke)" fill-rule="evenodd" clip-rule="evenodd" d="M3.07935 12.2873C3.07935 12.0935 3.23652 11.9363 3.43041 11.9363H14.6645C14.8583 11.9363 15.0155 12.0935 15.0155 12.2873C15.0155 12.4812 14.8583 12.6384 14.6645 12.6384H3.43041C3.23652 12.6384 3.07935 12.4812 3.07935 12.2873Z" fill="black"/>
<path id="Vector 34 (Stroke)" fill-rule="evenodd" clip-rule="evenodd" d="M20.9468 5.3831H16.8511V4.68097H20.9468C21.1407 4.68097 21.2979 4.83815 21.2979 5.03203C21.2979 5.22592 21.1407 5.3831 20.9468 5.3831Z" fill="black"/>
</g>
</g>
</svg>
