<svg width="30" height="31" viewBox="0 0 30 31" fill="none" xmlns="http://www.w3.org/2000/svg">
<g id="ic-menu">
<g id="Mask group">
<path id="Vector 13 (Stroke)" fill-rule="evenodd" clip-rule="evenodd" d="M27.5 7.375C27.5 8.06536 26.9404 8.625 26.25 8.625L3.125 8.625C2.43464 8.625 1.875 8.06536 1.875 7.375C1.875 6.68464 2.43464 6.125 3.125 6.125L26.25 6.125C26.9404 6.125 27.5 6.68464 27.5 7.375Z" fill="#100C08"/>
<path id="Vector 14 (Stroke)" fill-rule="evenodd" clip-rule="evenodd" d="M21.875 15.5C21.875 16.1904 21.3154 16.75 20.625 16.75L3.125 16.75C2.43464 16.75 1.875 16.1904 1.875 15.5C1.875 14.8096 2.43464 14.25 3.125 14.25L20.625 14.25C21.3154 14.25 21.875 14.8096 21.875 15.5Z" fill="#100C08"/>
<path id="Vector 15 (Stroke)" fill-rule="evenodd" clip-rule="evenodd" d="M27.5 23.625C27.5 24.3154 26.9404 24.875 26.25 24.875L3.125 24.875C2.43464 24.875 1.875 24.3154 1.875 23.625C1.875 22.9346 2.43464 22.375 3.125 22.375L26.25 22.375C26.9404 22.375 27.5 22.9346 27.5 23.625Z" fill="#100C08"/>
</g>
</g>
</svg>
