<svg width="22" height="22" viewBox="0 0 22 22" fill="none" xmlns="http://www.w3.org/2000/svg">
<g id="ic-message">
<g id="Group 2">
<g id="Mask group">
<path id="Union" fill-rule="evenodd" clip-rule="evenodd" d="M1.48637 6.54051V15.5289H3.13695C3.54743 15.5289 3.88019 15.8617 3.88019 16.2722V18.0144L6.10673 15.751C6.24645 15.6089 6.43735 15.5289 6.63658 15.5289H16.3253V6.54051H8.90582H1.48637ZM0.594482 6.39186C0.594482 5.98138 0.927244 5.64862 1.33773 5.64862H8.90582H16.4739C16.8844 5.64862 17.2172 5.98138 17.2172 6.39186V15.6776C17.2172 16.0881 16.8844 16.4208 16.4739 16.4208H6.69887L4.26139 18.8987C3.79497 19.3728 2.9883 19.0426 2.9883 18.3775V16.4208H1.33773C0.927244 16.4208 0.594482 16.0881 0.594482 15.6776V6.39186Z" fill="#100C08"/>
<path id="Vector 13 (Stroke)" fill-rule="evenodd" clip-rule="evenodd" d="M2.88916 8.84722C2.88916 8.60093 3.08882 8.40128 3.33511 8.40128H14.3495C14.5958 8.40128 14.7954 8.60093 14.7954 8.84722C14.7954 9.09351 14.5958 9.29317 14.3495 9.29317H3.33511C3.08882 9.29317 2.88916 9.09351 2.88916 8.84722Z" fill="#100C08"/>
<path id="Vector 14 (Stroke)" fill-rule="evenodd" clip-rule="evenodd" d="M2.88916 10.9283C2.88916 10.682 3.08882 10.4824 3.33511 10.4824H12.5137C12.76 10.4824 12.9597 10.682 12.9597 10.9283C12.9597 11.1746 12.76 11.3743 12.5137 11.3743H3.33511C3.08882 11.3743 2.88916 11.1746 2.88916 10.9283Z" fill="#100C08"/>
<path id="Vector 15 (Stroke)" fill-rule="evenodd" clip-rule="evenodd" d="M2.88916 13.0094C2.88916 12.7631 3.08882 12.5634 3.33511 12.5634H9.4542C9.70049 12.5634 9.90015 12.7631 9.90015 13.0094C9.90015 13.2557 9.70049 13.4553 9.4542 13.4553H3.33511C3.08882 13.4553 2.88916 13.2557 2.88916 13.0094Z" fill="#100C08"/>
</g>
<g id="Mask group_2">
<path id="Union_2" fill-rule="evenodd" clip-rule="evenodd" d="M20.4577 3.86485V11.1072H19.2169C18.8064 11.1072 18.4736 11.44 18.4736 11.8505V13.045L17.9609 12.5273L17.3232 11.8833C17.1499 11.7083 16.8675 11.707 16.6925 11.8803C16.5175 12.0536 16.5162 12.3359 16.6895 12.5109L17.3272 13.1549L18.0942 13.9293C18.5613 14.401 19.3655 14.0702 19.3655 13.4063V11.9991H20.6064C21.0168 11.9991 21.3496 11.6664 21.3496 11.2559V3.7162C21.3496 3.30572 21.0168 2.97296 20.6064 2.97296H14.3845H8.16255C7.75207 2.97296 7.41931 3.30572 7.41931 3.7162V4.43569C7.41931 4.68198 7.61897 4.88164 7.86526 4.88164C8.11155 4.88164 8.3112 4.68198 8.3112 4.43569V3.86485H14.3845H20.4577Z" fill="#100C08"/>
</g>
</g>
</g>
</svg>
