<svg width="22" height="22" viewBox="0 0 22 22" fill="none" xmlns="http://www.w3.org/2000/svg">
<g id="ic-search">
<g id="Group 1">
<path id="Vector 6 (Stroke)" fill-rule="evenodd" clip-rule="evenodd" d="M11.5704 13.4731L10.2115 12.319L10.8048 11.6203L11.9436 12.5874L12.416 12.0312L11.2772 11.0641L11.8705 10.3654L13.2295 11.5194L14.3542 11.5146L21.4365 17.529L18.8301 20.5981L11.7478 14.5837L11.5704 13.4731ZM12.4821 13.3694L12.5996 14.1044L18.7247 19.3061L20.1444 17.6343L14.0192 12.4327L13.2749 12.4359L12.4821 13.3694Z" fill="#100C08"/>
<path id="Ellipse 7 (Stroke)" fill-rule="evenodd" clip-rule="evenodd" d="M6.87497 12.8333C9.82816 12.8333 12.2222 10.4393 12.2222 7.48612C12.2222 4.53293 9.82816 2.1389 6.87497 2.1389C3.92178 2.1389 1.52775 4.53293 1.52775 7.48612C1.52775 10.4393 3.92178 12.8333 6.87497 12.8333ZM6.87497 13.75C10.3344 13.75 13.1389 10.9456 13.1389 7.48612C13.1389 4.02667 10.3344 1.22223 6.87497 1.22223C3.41552 1.22223 0.611084 4.02667 0.611084 7.48612C0.611084 10.9456 3.41552 13.75 6.87497 13.75Z" fill="#100C08"/>
<path id="Ellipse 8 (Stroke)" fill-rule="evenodd" clip-rule="evenodd" d="M6.87492 11.6111C9.15309 11.6111 10.9999 9.7643 10.9999 7.48612C10.9999 5.20795 9.15309 3.36112 6.87492 3.36112C4.59674 3.36112 2.74992 5.20795 2.74992 7.48612C2.74992 9.7643 4.59674 11.6111 6.87492 11.6111ZM6.87492 12.5278C9.65935 12.5278 11.9166 10.2706 11.9166 7.48612C11.9166 4.70169 9.65935 2.44446 6.87492 2.44446C4.09048 2.44446 1.83325 4.70169 1.83325 7.48612C1.83325 10.2706 4.09048 12.5278 6.87492 12.5278Z" fill="#100C08"/>
</g>
</g>
</svg>
